<svg xmlns="http://www.w3.org/2000/svg" xmlns:xlink="http://www.w3.org/1999/xlink" viewBox="0 0 243.41 284.33"><defs><style>.cls-1{fill:#2e355c;}.cls-2{fill:#3b436b;}.cls-3{fill:#586081;}.cls-4{fill:#485077;}.cls-5{fill:#696e82;}.cls-32,.cls-6{fill:#ec6422;}.cls-7{fill:#e8590d;}.cls-8{fill:#d44415;}.cls-25,.cls-9{opacity:0.4;}.cls-9{fill:url(#linear-gradient);}.cls-10{fill:#4096b5;}.cls-11{fill:#63b4d1;}.cls-12,.cls-13,.cls-15,.cls-16{fill:#fff;}.cls-12{opacity:0.34;}.cls-13{opacity:0.24;}.cls-14{fill:#2ba5d2;}.cls-15{opacity:0.42;}.cls-17{fill:none;stroke:#4096b5;stroke-linecap:round;stroke-miterlimit:10;stroke-width:0.75px;}.cls-18,.cls-20{fill:#3e132a;}.cls-19{fill:#5e1c3d;}.cls-20,.cls-31{opacity:0.5;}.cls-21{fill:url(#linear-gradient-2);}.cls-22{fill:#010202;}.cls-23{fill:#825550;}.cls-24{fill:#8c633a;}.cls-25{fill:#daa656;}.cls-26{fill:#231f20;}.cls-27{fill:url(#linear-gradient-3);}.cls-28{fill:url(#linear-gradient-4);}.cls-29,.cls-31{fill:#361124;}.cls-30{fill:#551a37;}.cls-32{fill-rule:evenodd;}</style><linearGradient id="linear-gradient" x1="107.09" y1="144.74" x2="193.57" y2="144.74" gradientUnits="userSpaceOnUse"><stop offset="0.01" stop-color="#f1841f"/><stop offset="0.11" stop-color="#f1831f" stop-opacity="0.98"/><stop offset="0.23" stop-color="#f18120" stop-opacity="0.91"/><stop offset="0.38" stop-color="#f07e20" stop-opacity="0.8"/><stop offset="0.53" stop-color="#ef7a21" stop-opacity="0.65"/><stop offset="0.69" stop-color="#ee7423" stop-opacity="0.46"/><stop offset="0.86" stop-color="#ed6e24" stop-opacity="0.23"/><stop offset="1" stop-color="#ec6726" stop-opacity="0"/></linearGradient><linearGradient id="linear-gradient-2" x1="506.63" y1="-190.06" x2="439.51" y2="-169.1" gradientTransform="matrix(1, 0.1, -0.1, 1, -317.29, 183.3)" gradientUnits="userSpaceOnUse"><stop offset="0" stop-color="#f1841f"/><stop offset="0.1" stop-color="#f1831f" stop-opacity="0.98"/><stop offset="0.23" stop-color="#f18120" stop-opacity="0.91"/><stop offset="0.38" stop-color="#f07e20" stop-opacity="0.8"/><stop offset="0.53" stop-color="#ef7a21" stop-opacity="0.65"/><stop offset="0.69" stop-color="#ee7423" stop-opacity="0.46"/><stop offset="0.86" stop-color="#ed6e24" stop-opacity="0.23"/><stop offset="1" stop-color="#ec6726" stop-opacity="0"/></linearGradient><linearGradient id="linear-gradient-3" x1="446.75" y1="-187.3" x2="460.43" y2="-187.3" xlink:href="#linear-gradient-2"/><linearGradient id="linear-gradient-4" x1="421.24" y1="-178.73" x2="438.05" y2="-178.73" xlink:href="#linear-gradient-2"/></defs><g id="Layer_2" data-name="Layer 2"><g id="Isolation_Mode" data-name="Isolation Mode"><path class="cls-1" d="M98.45,205s-4.8,7.53-10.18,10.68c-9.9,5.78-21.65,6.78-8.36-10.31,0,0-32.88,16.44-5.55-6.65,0,0-50.37,21.54-7.31-8.07,0,0-52.12,2.38-7-12.94,0,0-66.11,7.11-5.35-12.32,0,0-30.16-3.2-3.33-8.51,0,0-57.58-3.47-3.85-13.28,0,0-52.15-12.92-4.1-15.67,0,0-49.77-13.18-2.09-11.86,0,0-56.5-8.43-3-13.37,0,0-43.58-8.2.85-14.6,0,0-41.77-21.29,2.24-9.1,0,0-38.93-24.82,6.77-12,0,0-39.3-32.84,6.85-11.21,0,0-28.29-30.8,6.94-10.42,0,0-13.81-23.49,5.14-4.58,0,0-26.45-51.14,8.34-4.93,0,0-12.54-34.1,8.42-4.13,0,0-8.1-37.8,6-3.87,0,0-12-43.83,9.22-4.21,0,0-7.88-50.72,10.1-3.51,0,0-1.92-32.82,11.15-1.2,0,0,1.63-37.24,6.46.12,0,0,19.21-31.08,14.68,1.64,0,0,19.42-14.18.92,16,0,0-44.47-8.91-63.43,24.56s-17.86,64.6-4.79,105.26C86.51,205.06,98.45,205,98.45,205Z" transform="translate(-14.49)"/><path class="cls-2" d="M102.61,192.45c-1.26,7.76-16.85,22.51-21,19.17-1.87-1.51,1.63-5.07,5.14-19.65,0,0-36.44,25.8-4.73-5.66,0,0-50.78,17.39-6.23-6.88,0,0-44.38,2-6-11,0,0-56.3,6.06-4.56-10.49,0,0-25.68-2.73-2.84-7.24,0,0-49-3-3.27-11.32,0,0-44.42-11-3.5-13.35,0,0-42.38-11.22-1.77-10.1,0,0-48.12-7.17-2.6-11.39,0,0-37.12-7,.72-12.42,0,0-35.57-18.14,1.91-7.76,0,0-33.15-21.13,5.77-10.23,0,0-33.47-28,5.83-9.55,0,0-24.09-26.22,5.91-8.86,0,0-11.76-20,4.38-3.91,0,0-22.53-43.55,7.1-4.19,0,0-10.67-29,7.17-3.52,0,0-6.9-32.2,5.14-3.3,0,0-10.2-37.33,7.84-3.59,0,0-6.7-43.19,8.6-3,0,0-1.63-28,9.5-1,0,0,1.39-31.72,5.5.09,0,0,16.37-26.46,12.5,1.4,0,0,21.06-16.31-2.64,13.67,0,0-34.45-7.62-50.6,20.88S57.32,132,81.87,158.88C99.45,178.1,104.15,183,102.61,192.45Z" transform="translate(-14.49)"/><path class="cls-3" d="M57.27,170.22c.28,1.51,6.19,1.71,13.19.46s12.47-3.5,12.19-5-6.18-1.72-13.18-.46S57,168.7,57.27,170.22Z" transform="translate(-14.49)"/><path class="cls-3" d="M67.39,184.45c.83,1.29,6.37-.76,12.37-4.59s10.18-8,9.35-9.27-6.37.77-12.36,4.6S66.56,183.16,67.39,184.45Z" transform="translate(-14.49)"/><path class="cls-3" d="M83.33,197.2c1.2,1,5.77-2.79,10.22-8.35s7.07-10.84,5.86-11.8-5.78,2.79-10.22,8.35S82.12,196.24,83.33,197.2Z" transform="translate(-14.49)"/><path class="cls-3" d="M50.73,146.89c.26,1.51,6.16,1.78,13.18.59s12.5-3.37,12.24-4.88S70,140.82,63,142,50.46,145.38,50.73,146.89Z" transform="translate(-14.49)"/><path class="cls-3" d="M42.5,103.23c-.15,1.53,5.48,3.35,12.57,4.07s12.95.06,13.1-1.46-5.48-3.35-12.56-4.07S42.65,101.71,42.5,103.23Z" transform="translate(-14.49)"/><path class="cls-3" d="M50.14,76.09c-.14,1.52,5.48,3.34,12.57,4.06s13,.07,13.1-1.46-5.47-3.34-12.56-4.06S50.29,74.56,50.14,76.09Z" transform="translate(-14.49)"/><path class="cls-3" d="M65.56,49.7c-1.15,1,1.75,6.18,6.48,11.51S81.52,70,82.66,69s-1.75-6.18-6.48-11.51S66.71,48.68,65.56,49.7Z" transform="translate(-14.49)"/><path class="cls-3" d="M88.87,38.92c-1.1.41-.43,4.91,1.5,10s4.38,9,5.48,8.55.43-4.92-1.5-10.05S90,38.5,88.87,38.92Z" transform="translate(-14.49)"/><path class="cls-3" d="M111.29,27.38c-1.17.1-1.73,4.63-1.26,10.11s1.81,9.83,3,9.72,1.74-4.63,1.27-10.11S112.47,27.27,111.29,27.38Z" transform="translate(-14.49)"/><path class="cls-3" d="M132.62,30.35c-1.06-.51-3.86,3.1-6.24,8s-3.45,9.38-2.38,9.89,3.85-3.1,6.23-8.06S133.68,30.85,132.62,30.35Z" transform="translate(-14.49)"/><path class="cls-4" d="M102.7,180.08c-1.46,2.17-16.74,20.68-10.45-.85,0,0-30.72,21.74-4-4.78,0,0-42.81,14.66-5.26-5.8,0,0-37.42,1.71-5.05-9.29,0,0-47.46,5.11-3.84-8.84,0,0-21.65-2.3-2.39-6.11,0,0-41.35-2.49-2.76-9.54,0,0-37.45-9.27-3-11.25,0,0-35.73-9.46-1.5-8.52,0,0-40.56-6-2.19-9.6,0,0-31.29-5.88.61-10.48,0,0-30-15.28,1.61-6.53,0,0-27.95-17.82,4.86-8.62,0,0-28.22-23.58,4.92-8.06,0,0-20.32-22.11,5-7.47,0,0-9.91-16.87,3.7-3.29,0,0-19-36.72,6-3.54,0,0-9-24.49,6-3,0,0-5.81-27.15,4.33-2.78,0,0-8.59-31.48,6.62-3,0,0-5.66-36.42,7.25-2.52,0,0-1.38-23.57,8-.86,0,0,1.18-26.74,4.64.08,0,0,13.8-22.31,10.54,1.18,0,0,17.75-13.75-2.23,11.53,0,0-29-6.43-42.65,17.6-3.35,5.92-6.83,12.4-9.78,19-9,20.38-13.13,42.4,6.31,54.89C110.58,164.17,107.21,173.39,102.7,180.08Z" transform="translate(-14.49)"/><path class="cls-3" d="M101.77,145.53s4.62-3.54-1.21-11.15c0,0,5.82.81,1.28-4.79,0,0,8.2.55,2.86-9.62,0,0,10.18,1,2.5-7.08,0,0,6.55,4.31,6.27-5,0,0,7.83-.48,1.64-8,0,0,12.63-2.44,5.43-12.76,0,0,8.14-.88.82-9,0,0,13,4.33,2-4.87,0,0,7.36-1.51,3.62-9.7,0,0,5.25,5.52,6.1-3.17,0,0,13-24.85-1.75-10.51,0,0,6.46-21.11-7.22.38,0,0-3.41-15-7,1.46,0,0-12.93-13.64-7.88,3.36,0,0-14.7-13.46-6.66,4.66,0,0-23-14.36-8.43,4.84,0,0-18.14-8.79-4.46,5.14,0,0-18.45-8.4-4.7,6.23,0,0-23.31-16.87-3.65,6.1,0,0-28.41-4.44-4.22,7.29,0,0-25-6.26-2.35,8.13,0,0-14.16,1.52-2.74,7.81,0,0-28,5.88-1.4,7,0,0-31.23,2.64-.19,8.25,0,0-17.5.45-.65,7.24,0,0-20.66,4.37.72,6.72,0,0-16.79,6.36,4.44,5.92,0,0-18.2,16,6,8,0,0-18.22,13.45,3.91,3.17,0,0-12.1,11.22,3,3,0,0-4.47,19.69,5.81,2.11,0,0-.28,9.79,1.63,10,4.31.54,2.23-12.51,2.23-12.51s12.54-3.68,12-7.11C109.12,145.11,101.77,145.53,101.77,145.53Z" transform="translate(-14.49)"/><path class="cls-5" d="M71,126c0,1.24,3.8,2.37,8.59,2.52s8.69-.75,8.73-2-3.81-2.37-8.6-2.52S71,124.78,71,126Z" transform="translate(-14.49)"/><path class="cls-5" d="M66.55,94.5c-.18,1,4.12,2.58,9.6,3.64s10.09,1.14,10.27.18-4.11-2.59-9.6-3.64S66.73,93.54,66.55,94.5Z" transform="translate(-14.49)"/><path class="cls-5" d="M67.35,115.51c-.17,1.23,3.52,2.79,8.25,3.47s8.71.24,8.88-1-3.52-2.78-8.25-3.46S67.53,114.28,67.35,115.51Z" transform="translate(-14.49)"/><path class="cls-5" d="M81,112.7c-.18,1.23,3.52,2.78,8.25,3.47s8.71.24,8.88-1-3.52-2.78-8.25-3.47S81.19,111.47,81,112.7Z" transform="translate(-14.49)"/><path class="cls-5" d="M65.86,109.43c.22,1.22,5,1.39,10.68.37s10.09-2.83,9.86-4-5-1.39-10.67-.38S65.64,108.2,65.86,109.43Z" transform="translate(-14.49)"/><path class="cls-4" d="M73,122.32c.26.75,3.56.25,7.36-1.11s6.66-3.06,6.39-3.81-3.57-.25-7.36,1.11S72.71,121.58,73,122.32Z" transform="translate(-14.49)"/><path class="cls-4" d="M73.42,101c-.35.89,2.4,2.83,6.15,4.32s7.07,2,7.42,1.08-2.4-2.82-6.15-4.31S73.77,100.09,73.42,101Z" transform="translate(-14.49)"/><path class="cls-4" d="M78.65,91.41c-.62.73.81,3,3.21,5s4.83,3.14,5.45,2.42-.82-3-3.21-5l-.36-.31C81.46,91.67,79.24,90.73,78.65,91.41Z" transform="translate(-14.49)"/><path class="cls-4" d="M113.28,69.13c-.58.67.56,2.6,2.54,4.29s4.07,2.52,4.65,1.84-.55-2.6-2.54-4.3l-.3-.25C115.74,69.19,113.84,68.48,113.28,69.13Z" transform="translate(-14.49)"/><path class="cls-4" d="M90.15,120.08c-.62.72.82,3,3.21,5s4.83,3.14,5.45,2.41-.81-3-3.21-5l-.36-.31C93,120.33,90.74,119.39,90.15,120.08Z" transform="translate(-14.49)"/><path class="cls-4" d="M111.12,55.52c-1,0-1.68,2.59-1.63,5.74s.88,5.7,1.83,5.68,1.68-2.59,1.62-5.74S112.07,55.5,111.12,55.52Z" transform="translate(-14.49)"/><path class="cls-4" d="M109.83,91.83c-1,0-1.68,2.59-1.62,5.74s.87,5.7,1.82,5.68,1.68-2.59,1.63-5.74S110.78,91.81,109.83,91.83Z" transform="translate(-14.49)"/><path class="cls-4" d="M124.66,55.87c-.43-.38-2.48,1.24-4.58,3.62s-3.45,4.63-3,5,2.48-1.24,4.58-3.63S125.09,56.25,124.66,55.87Z" transform="translate(-14.49)"/><path class="cls-4" d="M95.64,62.05c-.63.72.81,3,3.2,5s4.84,3.14,5.46,2.42-.82-3-3.21-5S96.25,61.32,95.64,62.05Z" transform="translate(-14.49)"/><path class="cls-5" d="M131.69,58c-.72-.62-3,.81-5,3.19s-3.16,4.83-2.44,5.45,3-.8,5-3.19S132.41,58.67,131.69,58Z" transform="translate(-14.49)"/><path class="cls-4" d="M85.12,143.31c.27.75,2.49.64,5-.24s4.26-2.2,4-2.95-2.48-.64-5,.24S84.85,142.56,85.12,143.31Z" transform="translate(-14.49)"/><path class="cls-4" d="M81.62,89.19c.26.75,2.48.64,4.95-.24s4.26-2.2,4-3-2.49-.64-5,.24S81.35,88.44,81.62,89.19Z" transform="translate(-14.49)"/><path class="cls-4" d="M89.81,91.8c-.14.78,1.84,1.78,4.43,2.23s4.8.18,4.94-.6-1.85-1.78-4.44-2.23S89.94,91,89.81,91.8Z" transform="translate(-14.49)"/><path class="cls-4" d="M95.93,115.76c.26.75,2.48.64,4.95-.24s4.26-2.2,4-3-2.48-.64-5,.24S95.66,115,95.93,115.76Z" transform="translate(-14.49)"/><path class="cls-4" d="M124.05,61c-.55.08-.78,1.65-.51,3.5s.93,3.29,1.48,3.21.78-1.65.51-3.5S124.6,60.91,124.05,61Z" transform="translate(-14.49)"/><path class="cls-4" d="M129.17,51.35c-.54-.17-1.43,1.16-2,3s-.6,3.38-.06,3.55,1.42-1.16,2-3S129.7,51.51,129.17,51.35Z" transform="translate(-14.49)"/><path class="cls-4" d="M86.68,77.23c-.24.76,1.6,2,4.11,2.78s4.73.79,5,0-1.6-2-4.1-2.78S86.92,76.47,86.68,77.23Z" transform="translate(-14.49)"/><path class="cls-4" d="M93.26,68.71c-.76.21-.68,2.81.17,5.81s2.17,5.25,2.93,5,.69-2.81-.17-5.81S94,68.49,93.26,68.71Z" transform="translate(-14.49)"/><path class="cls-4" d="M82.6,109.63c-.41.66,1.4,2.54,4,4.18s5.13,2.43,5.55,1.76-1.4-2.54-4-4.18S83,109,82.6,109.63Z" transform="translate(-14.49)"/><path class="cls-4" d="M101.15,73.94c-.7.34-.16,2.88,1.21,5.67s3.07,4.78,3.77,4.43.16-2.88-1.21-5.67S101.86,73.59,101.15,73.94Z" transform="translate(-14.49)"/><path class="cls-4" d="M79.55,133.26c.26.75,2.48.64,5-.24s4.26-2.21,4-3-2.48-.65-4.95.23S79.28,132.51,79.55,133.26Z" transform="translate(-14.49)"/><path class="cls-5" d="M80.23,138.15c0,1.24,3.29,2.35,7.43,2.48s7.53-.78,7.56-2-3.28-2.36-7.42-2.48S80.27,136.9,80.23,138.15Z" transform="translate(-14.49)"/><path class="cls-5" d="M97.91,91c.34,1.19,3.85,1.24,7.84.09s7-3,6.61-4.24-3.85-1.24-7.84-.1S97.57,89.76,97.91,91Z" transform="translate(-14.49)"/><path class="cls-5" d="M88.42,101.5c-.19,1.23,3,2.72,7.09,3.34s7.58.12,7.77-1.11-3-2.72-7.09-3.34S88.61,100.27,88.42,101.5Z" transform="translate(-14.49)"/><path class="cls-5" d="M105.09,72.1c-.6.79,1.58,3.47,4.87,6S116.41,82,117,81.24s-1.58-3.47-4.87-6S105.7,71.32,105.09,72.1Z" transform="translate(-14.49)"/><path class="cls-5" d="M80.19,77.28c-.81.9,1.25,4.07,4.61,7.1s6.74,4.75,7.55,3.85-1.25-4.07-4.61-7.09S81,76.39,80.19,77.28Z" transform="translate(-14.49)"/><path class="cls-5" d="M119.09,53.43c-.88-.14-2,2.67-2.57,6.27s-.26,6.61.62,6.75,2-2.67,2.58-6.26S120,53.57,119.09,53.43Z" transform="translate(-14.49)"/><path class="cls-5" d="M84.19,69.06c-.81.89,1.25,4.07,4.61,7.09S95.53,80.9,96.34,80s-1.25-4.07-4.61-7.1S85,68.16,84.19,69.06Z" transform="translate(-14.49)"/><path class="cls-5" d="M100.11,56.77c-.81.89,1.26,4.07,4.61,7.09s6.74,4.75,7.55,3.85-1.25-4.07-4.61-7.09S100.92,55.87,100.11,56.77Z" transform="translate(-14.49)"/><path class="cls-5" d="M87.56,66.15c-.19.95,4.11,2.58,9.6,3.64s10.09,1.14,10.27.18-4.12-2.59-9.6-3.65S87.74,65.19,87.56,66.15Z" transform="translate(-14.49)"/><path class="cls-4" d="M90.42,134.41c.26.75,2.48.65,5-.24s4.26-2.2,4-2.95-2.48-.64-5,.24S90.15,133.67,90.42,134.41Z" transform="translate(-14.49)"/><path class="cls-4" d="M98.42,100.39c-.62.72.81,3,3.2,5s4.84,3.15,5.46,2.42-.82-3-3.21-5l-.37-.31C101.23,100.64,99,99.7,98.42,100.39Z" transform="translate(-14.49)"/><path class="cls-4" d="M91.64,99.58c-.76.21-.69,2.81.17,5.81s2.17,5.25,2.93,5,.69-2.82-.17-5.81S92.4,99.36,91.64,99.58Z" transform="translate(-14.49)"/><path class="cls-4" d="M97.26,83.36c-.62.72.81,3,3.21,5s4.83,3.14,5.45,2.42-.82-3-3.21-5S97.88,82.64,97.26,83.36Z" transform="translate(-14.49)"/><path class="cls-4" d="M109.85,87.92c-.14.78,1.85,1.78,4.44,2.23s4.8.18,4.94-.59-1.85-1.78-4.44-2.23S110,87.14,109.85,87.92Z" transform="translate(-14.49)"/><path class="cls-4" d="M110.84,73.34c-.76.21-.69,2.81.17,5.81s2.17,5.25,2.93,5,.69-2.82-.17-5.81S111.61,73.12,110.84,73.34Z" transform="translate(-14.49)"/><path class="cls-6" d="M131.89,37.89c3.52-1.18,7.89-3.51,10.17-6.5,4.57-6-5.86-16-12.28-9.31-3.31,3.4-3.38,8.42-4.25,11.71" transform="translate(-14.49)"/><path class="cls-7" d="M133.8,34.3c2.17-.74,4.92-2.17,6.24-4,2.86-3.68-3.59-9.91-7.58-5.8-2.05,2.11-2.08,5.21-2.63,7.28" transform="translate(-14.49)"/><path class="cls-8" d="M140.15,30.29a4,4,0,0,0,.13-3.11,6.86,6.86,0,0,0-1.83-2.5,4.58,4.58,0,0,0-2.77-1.12,4.49,4.49,0,0,0-3,.92,4.31,4.31,0,0,1,3-1.78,5.23,5.23,0,0,1,3.53,1.17,5.58,5.58,0,0,1,2,3A4,4,0,0,1,140.15,30.29Z" transform="translate(-14.49)"/><path class="cls-6" d="M134.62,80.23s60.71,47.52,76.68,42.24,36-41.29,36-41.29l-9.73,1.37S215.53,99.8,210.21,99.09s-41.66-26.77-41.66-26.77S149.4,55,134.62,80.23Z" transform="translate(-14.49)"/><path class="cls-7" d="M167.22,69.55c-17.32,24.61,6.42,51,6.42,51s17.06-3,24.72,0C194.31,106.69,167.22,69.55,167.22,69.55Z" transform="translate(-14.49)"/><path class="cls-6" d="M178.47,90.41c-2-5-12.71-21-13-29.26S156.31,48.45,150.1,39s-22.68-10.42-37.31-7.09S86.2,51,84,58.94c-1.48,5.33-8.34,27.11-11.86,29.8-3.37,13.78,1.08,11.63,3.31,25.73.59,5.3,2.53,9.92,1.06,15.76,2.61,21.22,2.19,51.77-2,71.66-6.65,31.25,1.24,59.59,1.24,59.59h7.37s4.28-31.42,30.4-47c9.76-5.81,35.32-13.37,47.43-8.34s23,29.72,23,29.72l6.68-2.11s-2.08-3.07-.1-16.09C193.44,198.06,198.36,139.62,178.47,90.41Z" transform="translate(-14.49)"/><path class="cls-9" d="M193.57,148.51c0,22.79-19.48,41.27-43.51,41.27s-43-18.89-43-41.68,18.09-48.39,42.12-48.39S193.57,125.72,193.57,148.51Z" transform="translate(-14.49)"/><path class="cls-10" d="M124.6,244.09,21.53,219.32c-3.09-.75-5.3-4.48-4.93-8.35l7.65-79.18c.37-3.86,3.2-6.78,6.32-6.52l103.91,8.87c3.12.27,5.32,4.22,4.91,8.82L131,237.11C130.53,241.71,127.69,244.83,124.6,244.09Z" transform="translate(-14.49)"/><path class="cls-11" d="M122.53,243.59,19.46,218.82c-3.09-.74-5.3-4.47-4.93-8.33l7.63-78.9c.37-3.85,3.2-6.76,6.32-6.5L132.4,134c3.12.26,5.31,4.2,4.9,8.78l-8.42,93.88C128.46,241.22,125.62,244.34,122.53,243.59Z" transform="translate(-14.49)"/><path class="cls-10" d="M130.7,142l-88.89-8.6a1.43,1.43,0,0,1-1.07-1.67l.06-.6a1.43,1.43,0,0,1,1.37-1.45l88.91,8.07c.67.06,1.15.91,1.06,1.89l-.06.69C132,141.26,131.37,142,130.7,142Z" transform="translate(-14.49)"/><path class="cls-10" d="M35.81,130.91a1.69,1.69,0,0,0,1.28,2,1.91,1.91,0,0,0,.35-3.7A1.7,1.7,0,0,0,35.81,130.91Z" transform="translate(-14.49)"/><path class="cls-10" d="M30.42,130.41a1.69,1.69,0,0,0,1.29,2,1.89,1.89,0,0,0,.35-3.67A1.7,1.7,0,0,0,30.42,130.41Z" transform="translate(-14.49)"/><path class="cls-10" d="M25,129.9a1.68,1.68,0,0,0,1.28,2,1.87,1.87,0,0,0,.35-3.64A1.69,1.69,0,0,0,25,129.9Z" transform="translate(-14.49)"/><path class="cls-12" d="M127.73,189.43,23,172.31a2.45,2.45,0,0,1-1.74-2.78l3-31.28A2.27,2.27,0,0,1,26.45,136l105.11,10.87c1.1.12,1.87,1.51,1.72,3.11L130,186.85C129.82,188.45,128.82,189.61,127.73,189.43Z" transform="translate(-14.49)"/><path class="cls-13" d="M59.35,184.26,56,219.73c-.11,1.22-1,2-1.86,1.82l-35.48-8.22a2.24,2.24,0,0,1-1.45-2.45l3.21-33.33a1.77,1.77,0,0,1,1.86-1.79l35.6,6A2.2,2.2,0,0,1,59.35,184.26Z" transform="translate(-14.49)"/><path class="cls-13" d="M127.42,215.21l-1.94,21.5c-.06.74-.83,1.17-1.71,1l-34.12-7.91a1.73,1.73,0,0,1-1.47-1.63l1.87-20.38c.07-.7.83-1.12,1.71-.95L126,213.56A1.71,1.71,0,0,1,127.42,215.21Z" transform="translate(-14.49)"/><path class="cls-14" d="M38.53,200.83c-2.54-.52-3.17,4.92-4.73,8.35l13,2.84C42.65,209.23,40.38,201.21,38.53,200.83Z" transform="translate(-14.49)"/><path class="cls-11" d="M38.53,200.83c-2.54-.52-4.61,4.61-6.17,8L45.3,211.7C41.2,208.92,40.38,201.21,38.53,200.83Z" transform="translate(-14.49)"/><path class="cls-14" d="M56.9,210.36,56,219.73c-.11,1.22-1,2-1.86,1.82l-33.79-7.83a2.24,2.24,0,0,1-1.45-2.45l.76-7.84c2.62-4.07,3.73-8,6.93-8.25,7.34.12,12.18,20.08,22.15,9.23C50.66,202.86,53.94,206.37,56.9,210.36Z" transform="translate(-14.49)"/><path class="cls-11" d="M47.24,204.79c-10,10.82-13.29-9.49-20.63-9.61-3.2.25-6,3.83-8.63,7.89l-.75,7.81a2.24,2.24,0,0,0,1.45,2.45l35.48,8.22c.92.21,1.75-.6,1.86-1.82l.68-7.26C53.43,207.81,50.81,201.28,47.24,204.79Z" transform="translate(-14.49)"/><path class="cls-15" d="M47.24,204.79c-10,10.82-13.29-9.49-20.63-9.61-3.2.25-6,3.83-8.63,7.89l-.75,7.81a2.24,2.24,0,0,0,1.45,2.45l35.48,8.22c.92.21,1.75-.6,1.86-1.82l.68-7.26C53.43,207.81,50.81,201.28,47.24,204.79Z" transform="translate(-14.49)"/><path class="cls-13" d="M49.41,192.1c-.29,3-2.36,5-4.63,4.58s-3.89-3.19-3.61-6.13,2.35-5,4.63-4.58S49.69,189.12,49.41,192.1Z" transform="translate(-14.49)"/><path class="cls-16" d="M48.33,191.9c-.21,2.19-1.74,3.7-3.41,3.38s-2.88-2.35-2.67-4.52,1.74-3.69,3.41-3.39S48.54,189.7,48.33,191.9Z" transform="translate(-14.49)"/><line class="cls-17" x1="46.46" y1="182.3" x2="98.86" y2="191.16"/><line class="cls-17" x1="46.21" y1="184.96" x2="98.6" y2="194.04"/><line class="cls-17" x1="45.96" y1="187.61" x2="98.34" y2="196.91"/><line class="cls-17" x1="45.71" y1="190.27" x2="98.08" y2="199.78"/><line class="cls-17" x1="45.46" y1="192.93" x2="97.82" y2="202.65"/><line class="cls-17" x1="45.22" y1="195.59" x2="97.56" y2="205.53"/><line class="cls-17" x1="44.97" y1="198.24" x2="97.3" y2="208.4"/><line class="cls-17" x1="44.72" y1="200.9" x2="73.89" y2="206.68"/><line class="cls-17" x1="44.47" y1="203.56" x2="73.63" y2="209.46"/><line class="cls-17" x1="44.22" y1="206.21" x2="73.38" y2="212.24"/><line class="cls-17" x1="43.97" y1="208.87" x2="73.12" y2="215.01"/><line class="cls-17" x1="43.72" y1="211.53" x2="72.86" y2="217.79"/><line class="cls-17" x1="43.47" y1="214.19" x2="72.61" y2="220.57"/><line class="cls-17" x1="43.22" y1="216.84" x2="72.35" y2="223.35"/><line class="cls-17" x1="42.97" y1="219.5" x2="72.1" y2="226.12"/><line class="cls-17" x1="42.72" y1="222.16" x2="71.84" y2="228.9"/><path class="cls-18" d="M83.66,264.46c.48,2,2.29,10.55,1,11.73-1,.91-5.91,7.21-10.22,7.85-9.66,1.45-14.25-3-14.67-4.33-.06-.18-.69-2.2-.67-2.37.35-3.07,12.77-6,14.83-8.33.91-1.06,1.71-5.24,2.19-6.2Z" transform="translate(-14.49)"/><path class="cls-19" d="M83.06,261.48c.48,2,2.44,12.2,1.17,13.38-1,.9-5.72,6.66-10,7.21s-7.47.54-12.19-1.75c-9.72-4.73,8-10.3,10.72-12.9,1.17-1.09,2.49-5,3-5.94Z" transform="translate(-14.49)"/><path class="cls-20" d="M83.06,271.06c-7.22-1.28-9.83-1.43-15.91-.49,3.63-1.88,4.94-2.39,5.89-3.49s2.17-4.64,2.65-5.6l.7.19A8.88,8.88,0,0,0,83.06,271.06Z" transform="translate(-14.49)"/><path class="cls-6" d="M90.51,53.59a19.17,19.17,0,0,1-9.36-1.7C74.65,48.1,78.44,34,87.69,35.27c4.36,1.89,6.6,9.32,8.65,12" transform="translate(-14.49)"/><path class="cls-6" d="M93.72,51.76A26.34,26.34,0,0,1,81,49c-6.49-3.79-.66-17,7.82-13.29,4.36,1.88,6.33,6.5,8.38,9.21" transform="translate(-14.49)"/><path class="cls-7" d="M89.73,48.39a14.15,14.15,0,0,1-7.06-1.27c-3.91-2.25-.46-10.2,4.66-8,2.6,1.2,3.84,3.82,5,5.56" transform="translate(-14.49)"/><path class="cls-8" d="M81.88,40.91a4.44,4.44,0,0,1,2.58-2.46,4.69,4.69,0,0,1,3.72.53,7.71,7.71,0,0,1,2.56,2.55c.64,1,1.09,2.11,1.64,3.16a20.31,20.31,0,0,1-2.26-2.64,8.07,8.07,0,0,0-2.44-2.14,4.47,4.47,0,0,0-3-.64A5.63,5.63,0,0,0,81.88,40.91Z" transform="translate(-14.49)"/><path class="cls-6" d="M138.71,39.75s.11-5.35,5.13-6.1,9.46,8.75,17.39,12S176,51.18,183,51s13.5-3.65,13.53-1.58-10.82,20.39-28,22.86S141,75,130.2,59.13s-13.78-19.06-7-20.88S138.71,39.75,138.71,39.75Z" transform="translate(-14.49)"/><path class="cls-21" d="M138.7,39.84s.11-5.35,5.13-6.1,9.46,8.75,17.39,12,14.72,5.54,21.75,5.4,13.5-3.65,13.53-1.58-10.82,20.39-28,22.86S141,75.11,130.19,59.23s-13.78-19.07-7-20.89S138.7,39.84,138.7,39.84Z" transform="translate(-14.49)"/><path class="cls-22" d="M187.16,50.6S197,46.48,198,47.4s-.12,6.79-5.57,9.19S187.16,50.6,187.16,50.6Z" transform="translate(-14.49)"/><circle class="cls-23" cx="164.35" cy="58.06" r="1.57"/><circle class="cls-23" cx="160.94" cy="60.92" r="0.82"/><circle class="cls-23" cx="164.85" cy="62.12" r="1.18"/><path class="cls-16" d="M165.35,72.72s-19.07,2.57-35.22-5.59S133.56,110.59,165.35,72.72Z" transform="translate(-14.49)"/><circle class="cls-16" cx="138.5" cy="45.44" r="7.39"/><circle class="cls-24" cx="140.26" cy="44.19" r="5.13"/><path class="cls-25" d="M159.11,45.72a4.62,4.62,0,0,1-8.72-3.07c.85-2.41,1.19,2.86,3.6,3.71S160,43.31,159.11,45.72Z" transform="translate(-14.49)"/><circle class="cls-26" cx="154.75" cy="44.19" r="3.74" transform="translate(26.47 157.99) rotate(-60.94)"/><circle class="cls-16" cx="142.38" cy="43.37" r="0.57"/><path class="cls-1" d="M145.44,43.83A8.09,8.09,0,0,1,151.7,40a16,16,0,0,1,7,.66s-2.92-5.25-8.63-3.26c-5.48,2.46-4.66,6.41-4.66,6.41" transform="translate(-14.49)"/><path class="cls-6" d="M145.44,43.83c1.9-3.37,6.53-6.16,13.59-2.91,0,0-3.4-5.9-8.87-4.07-3.16,1.06-4.53,3-4.89,4.62a4.3,4.3,0,0,0,.17,2.36" transform="translate(-14.49)"/><path class="cls-27" d="M145.44,43.83c1.9-3.37,6.53-6.16,13.59-2.91,0,0-3.4-5.9-8.87-4.07-3.16,1.06-4.53,3-4.89,4.62a4.3,4.3,0,0,0,.17,2.36" transform="translate(-14.49)"/><circle class="cls-16" cx="113.58" cy="50.46" r="9.04"/><circle class="cls-24" cx="129.85" cy="49.37" r="6.28" transform="translate(-23.1 38.03) rotate(-16.14)"/><path class="cls-25" d="M135.47,50a5.65,5.65,0,0,1-11.24-1.18c.33-3.11,2.22,3.06,5.32,3.39S135.8,46.86,135.47,50Z" transform="translate(-14.49)"/><circle class="cls-26" cx="129.85" cy="49.37" r="4.58" transform="translate(33.22 161.4) rotate(-74.57)"/><circle class="cls-16" cx="117.65" cy="47.8" r="0.69"/><path class="cls-1" d="M136.08,45.84c-2.65-1.49-6.05-1.61-9.72,0a21,21,0,0,0-7.52,5.57s-.29-8,7.55-9.62c7.9-1,9.69,4.06,9.69,4.06" transform="translate(-14.49)"/><path class="cls-6" d="M136.08,45.84c-4.47-2.51-11.64-2.5-17.42,6,0,0-.19-9,7.28-10.71,4.39-1,7.15.32,8.64,1.92a6.84,6.84,0,0,1,1.5,2.75" transform="translate(-14.49)"/><path class="cls-28" d="M136.08,45.84c-4.47-2.51-11.64-2.5-17.42,6,0,0-.19-9,7.28-10.71,4.39-1,7.15.32,8.64,1.92a6.84,6.84,0,0,1,1.5,2.75" transform="translate(-14.49)"/><path class="cls-29" d="M183.86,237.18c.19,1.93-.92,8.34.67,9.45a42.94,42.94,0,0,0,12.48,3.9c10.78,1.1,13-2.39,12.93-3.67a11.05,11.05,0,0,0,0-1.63c-1.31-2.92-12.62-2-15.32-4.27-1.21-1-3.3-5-4.06-5.88Z" transform="translate(-14.49)"/><path class="cls-30" d="M183.86,235.91c.19,1.92-.92,8.34.67,9.45,1.22.85,8.21,3.41,12.48,3.89s7.27.44,11-1.79c7.72-4.61-9.32-5.57-12.78-8-1.45-1-3.95-4.73-4.71-5.64Z" transform="translate(-14.49)"/><path class="cls-31" d="M186.6,243c6.45-1.29,8.65-2.38,14.72-1.55-3.82-1.07-5.22-1.31-6.47-2.35s-3.55-4.4-4.31-5.31l-.61.19C191.3,237.12,191.11,241.5,186.6,243Z" transform="translate(-14.49)"/><path class="cls-6" d="M75.05,79.1c-13.11,21-17.8,34.69-23,51.62-7.1,16.37,6.5,44,10,55.34.17.56,2.36.11,2.91.28h0c1.06.32,1.59.69,1.44-.45-1.37-10.33-3.11-30.94,4.41-45.25C113.64,94.7,88.83,55.48,75.05,79.1Z" transform="translate(-14.49)"/><path class="cls-6" d="M246.93,71.76l4.78,9.77a8.51,8.51,0,0,1-3.94,4.83,27.29,27.29,0,0,1-7,3l-2.67-4.53L240.7,76Z" transform="translate(-14.49)"/><path class="cls-6" d="M237.8,84.2a12.07,12.07,0,0,1-.89-6.56c.35-2.39.5-3.76.22-4.64a14.16,14.16,0,0,0-1.85-3.89s.57-1.23,3.49-.71c0,0,3.26,3,3.11,7.23,0,0,8.7,8.13-1.38,13.16A21.34,21.34,0,0,1,237.8,84.2Z" transform="translate(-14.49)"/><path class="cls-8" d="M241,87.34a5.52,5.52,0,0,0,2.78-5c0-1.81-1.12-4.86-2.16-5.08a9.4,9.4,0,0,1,1.73,5A6.42,6.42,0,0,1,241,87.34Z" transform="translate(-14.49)"/><polygon class="cls-6" points="241.12 65.49 229.37 73.96 231.48 76.74 243.41 69.05 241.12 65.49"/><polygon class="cls-8" points="227.4 78.69 235.08 74.54 236.86 77.7 229.33 82.29 227.4 78.69"/><polygon class="cls-6" points="235.4 74.09 237.41 77.61 229.44 81.92 227.76 78.79 235.4 74.09"/><polygon class="cls-8" points="231.07 85.02 229.9 81.67 236.46 78.2 238.56 81.47 231.07 85.02"/><polygon class="cls-6" points="236.57 77.95 238.58 81.46 231.23 84.66 230.23 81.79 236.57 77.95"/><path class="cls-32" d="M65.34,178.59s-.28,5.6,1.86,9.18,6.88,8.24,7.44,8.79c1.18,1.16,2.35-.46,1-2.66L71.44,187s-2.64-5.41-1.93-8.66Z" transform="translate(-14.49)"/><path class="cls-32" d="M61.93,184.93s-.21,1.24,1.93,5.21,7,7.57,7.55,8.2c1.23,1.31,2.94.18,1.56-2.09l-4.39-6.69a34.91,34.91,0,0,1,.76-6.82Z" transform="translate(-14.49)"/><path class="cls-32" d="M60.76,185.55A12.33,12.33,0,0,0,61,190c.88,3.06,4.14,6.71,4.68,7.22,1.14,1.08,1.7-.84.83-2.78L65,190.38s-.68-4.55.24-6.76Z" transform="translate(-14.49)"/><path class="cls-6" d="M71.31,182.34c4.21.06,6-.75,6-.75,1.65-1.62.75-2.77.75-2.77a25,25,0,0,1-5.37-.2s-1.61-.39-4.2-1c-1.23-.27-3.39,2.3-3.23,3.4Z" transform="translate(-14.49)"/><path class="cls-32" d="M60.68,188,60.59,181l1.73-4.23a34.73,34.73,0,0,1,10,1.86c1,.31-.16,3.39-.46,3.74a4.52,4.52,0,0,0-.63,4.1,5.17,5.17,0,0,1-4.48,3.5S62.83,190.26,60.68,188Z" transform="translate(-14.49)"/><path class="cls-8" d="M66.25,193.44s-1.52-2.43-1.88-3.29a12.11,12.11,0,0,1-.34-2.06l.59-.09a11,11,0,0,0,.08,2.19A29.82,29.82,0,0,0,66.25,193.44Z" transform="translate(-14.49)"/><path class="cls-8" d="M67.78,187.63a9,9,0,0,0,.35,1.75,11.67,11.67,0,0,0,1.3,1.58,14.25,14.25,0,0,1-1-1.78,12.45,12.45,0,0,1-.21-2Z" transform="translate(-14.49)"/></g></g></svg>