<svg xmlns="http://www.w3.org/2000/svg" xmlns:xlink="http://www.w3.org/1999/xlink" viewBox="0 0 1440 922.42"><defs><linearGradient id="linear-gradient" x1="724.54" x2="713.59" y1="542.42" y2="-13.88" gradientUnits="userSpaceOnUse"><stop offset=".49" stop-color="#d8e9ff"/><stop offset=".71" stop-color="#f1f7ff"/><stop offset=".86" stop-color="#fff"/></linearGradient><linearGradient id="Dégradé_sans_nom_106" x1="-2457.97" x2="-2480.66" y1="604.8" y2="15.01" gradientTransform="matrix(-1, 0, 0, 1, -1744.04, 0)" gradientUnits="userSpaceOnUse"><stop offset="0" stop-color="#fff" stop-opacity="0"/><stop offset=".97" stop-color="#fff"/></linearGradient><linearGradient id="linear-gradient-2" x1="423.29" x2="536.83" y1="487.94" y2="487.94" gradientUnits="userSpaceOnUse"><stop offset=".01" stop-color="#f2841e"/><stop offset=".11" stop-color="#f2831e" stop-opacity=".98"/><stop offset=".23" stop-color="#f2811f" stop-opacity=".91"/><stop offset=".38" stop-color="#f17e1f" stop-opacity=".8"/><stop offset=".53" stop-color="#f17a20" stop-opacity=".66"/><stop offset=".69" stop-color="#f07421" stop-opacity=".46"/><stop offset=".85" stop-color="#f06e23" stop-opacity=".23"/><stop offset="1" stop-color="#ef6724" stop-opacity="0"/></linearGradient><linearGradient id="linear-gradient-3" x1="536.41" x2="448.28" y1="197.82" y2="225.34" gradientTransform="matrix(1, 0.1, -0.1, 1, 37.29, 105.66)" gradientUnits="userSpaceOnUse"><stop offset="0" stop-color="#f2841e"/><stop offset=".1" stop-color="#f2831e" stop-opacity=".98"/><stop offset=".23" stop-color="#f2811f" stop-opacity=".91"/><stop offset=".37" stop-color="#f17e1f" stop-opacity=".8"/><stop offset=".53" stop-color="#f17a20" stop-opacity=".66"/><stop offset=".69" stop-color="#f07421" stop-opacity=".46"/><stop offset=".85" stop-color="#f06e23" stop-opacity=".23"/><stop offset="1" stop-color="#ef6724" stop-opacity="0"/></linearGradient><linearGradient id="linear-gradient-4" x1="457.79" x2="475.74" y1="201.45" y2="201.45" xlink:href="#linear-gradient-3"/><linearGradient id="linear-gradient-5" x1="424.29" x2="446.36" y1="212.7" y2="212.7" xlink:href="#linear-gradient-3"/><style>.cls-4{fill:#31b094}.cls-5{opacity:.11;mix-blend-mode:overlay}.cls-6{fill:#1f877d}.cls-10{fill:#6f97ed;opacity:.4}.cls-13{fill:#26a38e;opacity:.1}.cls-14{fill:#23968b}</style></defs><g style="isolation:isolate"><g id="Layer_2" data-name="Layer 2"><g id="visuals"><path fill="url(#linear-gradient)" d="M1440,150.91s-8.66-83-99.81-76.55c-72.39,5.08-137.31,72.13-220.25,9C1010.28,0,818.5-18.87,891.16,48.38c20.61,19.07,51.12,82.64,30.63,77.2C728.74,74.36,737.05-37.7,647.92,12.76,584.76,48.52,504.81,185.89,433.42,110c-17.2-18.3-236.93-156.92-160.65,30.38C309.5,230.53,45.36,60,0,79V472.65c38.15-7.28,1440,0,1440,0Z"/><g opacity=".55"><path d="M758.93,241.18a71.71,71.71,0,0,1-.84,14.93l2.18-.67a78.27,78.27,0,0,1-2.72,11.48l2-.54a84.83,84.83,0,0,1-5.3,12.46q12.51-1.63,24.64-3.28-2.08-3.36-4.32-6.77l2.58-.15q-3.14-5.11-6.64-10.27l2.69.19C768.77,252.72,764,246.89,758.93,241.18Z" class="cls-4"/><path d="M759.38,266.4l-2,.54a78.36,78.36,0,0,0,2.74-11.48l-2.18.67a72.49,72.49,0,0,0,.89-14l.33-.54.17.18a83,83,0,0,1,1.7,9.46c.39-.22.77-.45,1.15-.68A79.26,79.26,0,0,1,762,263l2-1.1a80.66,80.66,0,0,1-2.88,16l-7,.92A85.52,85.52,0,0,0,759.38,266.4Z" class="cls-5"/></g><path d="M787,207.44a123.25,123.25,0,0,1-1.43,25.42l3.71-1.15a132.57,132.57,0,0,1-4.64,19.55l3.42-.91a145.47,145.47,0,0,1-9,21.21q21.3-2.78,41.94-5.58-3.56-5.73-7.36-11.53l4.4-.26q-5.34-8.72-11.3-17.48l4.58.32C803.75,227.09,795.65,217.17,787,207.44Z" class="cls-6"/><path d="M787.77,250.39l-3.42.91A131.41,131.41,0,0,0,789,231.75l-3.71,1.15a122.66,122.66,0,0,0,1.52-23.79c.19-.31.38-.61.56-.92.1.1.19.21.28.31a142.79,142.79,0,0,1,2.91,16.11l2-1.15a135.73,135.73,0,0,1-.27,21.14l3.32-1.88a137.66,137.66,0,0,1-4.9,27.31l-12,1.57A145,145,0,0,0,787.77,250.39Z" class="cls-5"/><path fill="#1c786f" d="M330.68,269.92a107.29,107.29,0,0,0-5.44,15.89l2.39-.72a104.13,104.13,0,0,0-2.55,12.22l2-.57A102.56,102.56,0,0,0,325.67,310q12.48-1.74,24.7-3.49-3.63-3.58-6.8-7.21l2.71-.16a111.84,111.84,0,0,1-8-10.92l2.86.19A89,89,0,0,1,330.68,269.92Z"/><path d="M327.12,296.76l-2,.57a102.39,102.39,0,0,1,2.55-12.21l-2.4.71a108.22,108.22,0,0,1,5-14.86l.61-.58.09.2a81.61,81.61,0,0,0-1.6,10.06l1.38-.72a89.26,89.26,0,0,0-1.22,13.21l2-1.17A87.75,87.75,0,0,0,332.69,309l-7,1A101.16,101.16,0,0,1,327.12,296.76Z" class="cls-5"/><path d="M357.19,252.4A127.86,127.86,0,0,0,350.81,271l2.81-.84a122.62,122.62,0,0,0-3,14.33l2.4-.66a119,119,0,0,0-1.69,15.55q14.64-2,29-4.09c-2.83-2.8-5.49-5.63-8-8.46l3.18-.19a132.48,132.48,0,0,1-9.39-12.81l3.35.23A104.87,104.87,0,0,1,357.19,252.4Z" class="cls-6"/><path d="M353,283.87l-2.39.67a121.72,121.72,0,0,1,3-14.33l-2.81.84a126,126,0,0,1,5.87-17.45l.73-.67.09.23A96.39,96.39,0,0,0,355.64,265l1.62-.85a103.9,103.9,0,0,0-1.44,15.5l2.36-1.37a101.65,101.65,0,0,0,1.39,20l-8.23,1.15A119.31,119.31,0,0,1,353,283.87Z" class="cls-5"/><path fill="#77a3ff" d="M1196.65,65.23l-66.51-23.47-121.29,86.07L930.6,194.34l-180,82.17-180-46.95L253.73,327.37,0,360.34v221c183.18-39.13,493.28-101.22,627.54-98.38,377.84-30.4,812.46,171,812.46,171l-.78-314C1396.81,315.09,1196.65,65.23,1196.65,65.23Z"/><path fill="url(#Dégradé_sans_nom_106)" d="M1196.65,65.23l-66.51-23.47-121.29,86.07L930.6,194.34l-180,82.17-180-46.95L253.73,327.37,0,360.34V579.46l161.79-68.32,152.59,0S549,480.2,627.54,482.93c263-24,590.63,94.72,590.63,94.72l221.83-44-.78-193.73C1404.07,323.07,1196.65,65.23,1196.65,65.23Z" opacity=".34"/><polygon points="930.6 194.34 1008.85 127.83 1130.14 41.76 1100.79 115.11 1059.71 132.72 1067.54 173.8 1001.02 187.5 903.21 228.58 944.29 240.31 840.07 260.92 803.44 304.87 793.66 349.86 715.41 361.6 725.19 396.81 644.98 388.99 594.12 428.12 491.25 448.95 385.62 448.95 664.55 322.48 750.62 276.51 930.6 194.34" class="cls-10"/><polygon points="570.65 229.56 253.73 327.26 0 360.23 0 396.79 218.37 360.81 290.9 342.91 363.28 337.04 449.36 295.96 535.43 288.13 525.65 262.7 570.65 229.56" class="cls-10"/><polygon points="570.65 229.56 750.62 276.51 707.78 299.38 673.02 272.44 570.65 229.56" style="mix-blend-mode:overlay" fill="#fff" opacity=".22"/><polygon fill="#bfd3ff" points="1196.65 65.23 1144.9 46.97 1192.74 83.66 1220.13 132.57 1266.42 178.54 1292.51 216.36 1363.64 268.12 1196.65 65.23"/><path d="M1318.47,159.47a483.28,483.28,0,0,1-18,102.27l15.89-2.59a553.77,553.77,0,0,1-29.34,78.46l14.38-1.94a645.1,645.1,0,0,1-49.22,84.77l172.57-1.9q-10-25.76-21.66-51.89l18.21,1.29c-10.55-26-22.34-52.14-35.37-78.31l18.86,3.89A1346,1346,0,0,0,1318.47,159.47Z" class="cls-4"/><path d="M1301.36,335.67,1287,337.61a556.22,556.22,0,0,0,29.34-78.46l-15.9,2.59a486.08,486.08,0,0,0,17.51-95.7l2.81-3.35,1,1.41a515.42,515.42,0,0,1,4.57,66.74l8.75-3.55A519.25,519.25,0,0,1,1322.88,314l14.67-5.95a560.32,560.32,0,0,1-36.73,111.84l-48.68.53A646.22,646.22,0,0,0,1301.36,335.67Z" class="cls-5"/><path d="M1239.42,315.09a268,268,0,0,1-10,56.69l8.81-1.44A307.1,307.1,0,0,1,1222,413.83l8-1.07a359.17,359.17,0,0,1-27.29,47l95.66-1.06q-5.56-14.28-12-28.76l10.09.72c-5.84-14.4-12.38-28.91-19.6-43.41l10.46,2.16A748,748,0,0,0,1239.42,315.09Z" class="cls-6"/><path d="M1230,412.76l-8,1.07a307.1,307.1,0,0,0,16.26-43.49l-8.81,1.44a269.06,269.06,0,0,0,9.7-53l1.56-1.85.57.78a286.82,286.82,0,0,1,2.53,37l4.85-2a288,288,0,0,1-6.76,48.08l8.12-3.3a310.16,310.16,0,0,1-20.35,62l-27,.3A359.17,359.17,0,0,0,1230,412.76Z" class="cls-5"/><path d="M163.69,47.08a660.13,660.13,0,0,0,24.5,139.46L166.52,183a755.59,755.59,0,0,0,40,107l-19.6-2.65A880.93,880.93,0,0,0,254,403l-235.33-2.6q13.68-35.13,29.54-70.76l-24.82,1.76Q45,278.22,71.66,224.56l-25.72,5.31A1835.83,1835.83,0,0,1,163.69,47.08Z" class="cls-4"/><path d="M187,287.34,206.61,290a755.73,755.73,0,0,1-40-107l21.68,3.54A663,663,0,0,1,164.4,56c-1.29-1.52-2.56-3-3.83-4.56l-1.4,1.92a702.58,702.58,0,0,0-6.22,91Q147,142,141,139.55a708.52,708.52,0,0,0,16.64,118.27q-10.05-4-20-8.11a763.22,763.22,0,0,0,50.08,152.5l66.38.74A880.93,880.93,0,0,1,187,287.34Z" class="cls-5"/><path d="M268.22,201.75A464.5,464.5,0,0,0,285.48,300l-15.27-2.49a532.49,532.49,0,0,0,28.19,75.39l-13.81-1.86a620.26,620.26,0,0,0,47.3,81.46L166.05,450.7q9.64-24.75,20.81-49.86l-17.49,1.24c10.14-25,21.47-50.11,34-75.25l-18.13,3.74A1292.32,1292.32,0,0,1,268.22,201.75Z" class="cls-6"/><path d="M284.59,371.07l13.81,1.86a532.49,532.49,0,0,1-28.19-75.39L285.48,300a467.6,467.6,0,0,1-16.82-92l-2.7-3.21-1,1.35a494.88,494.88,0,0,0-4.39,64.13l-8.41-3.41a500.22,500.22,0,0,0,11.72,83.34q-7.08-2.85-14.09-5.71A539,539,0,0,0,285.1,452l46.79.51A620.26,620.26,0,0,1,284.59,371.07Z" class="cls-5"/><path d="M730.88,479.6q-16.27-.25-32.72-.26C412.21,486.45,0,621.54,0,711.45v211c210.54,0,458.6-183.77,798.67-47.18,280.07,131.6,364.25-74.62,641.33,18.65V726.77C1431.1,600,1014.39,487.41,730.88,479.6Z" class="cls-13"/><path d="M647.92,480.25C478.64,489.5,280.26,532.81,148,566.16,59,588.61,0,606.55,0,606.55V384.41l.17-.05.14,0h0a156.51,156.51,0,0,1,21.06-3.53c35.83-4,116.88-5.45,245.29,33.85,129.43,39.61,231.13,46.7,283.8,33.73C603.61,435.28,602.81,474.46,647.92,480.25Z" class="cls-14"/><path d="M148,566.16C59,588.61,0,606.55,0,606.55V384.41l.17-.05.14,0h0c1.54-.45,8.17-2.2,21.07-3.6,0,0,0,.05,0,.07C15.76,412.19-.72,529,222.11,460.35,311,442.52,209.06,496.2,148,566.16Z" class="cls-6"/><path d="M200.91,547.57c1.11-10.31,23.83-22.07,11-32.28-49.49,11.57,13.82-34-16.32-46.1-16.75,2.63-31.35,15.29-47.07,21.83,10.88-10.51,25.12-60.36-2.65-37.4a193.22,193.22,0,0,0-28.74,46.88c-6-14.56,21.1-36.66,2.78-47.31-19.55.13-25.33,56.7-37.26,41-3.34-74-32.43-48.9-28.48,0-11-60.29-38-21.77-12.56,29.74C21,506.41,8.3,511.51,0,526.55V631C18.79,632.93,200.91,547.57,200.91,547.57Z" class="cls-4"/><path d="M192.29,546.63a12.08,12.08,0,0,1-2-9c-6.74,3.1-13.69,6.31-20.71,2.69-4.41-2.27-7.42-6.36-6.53-11.47a13.25,13.25,0,0,1,.69-2.45c-3.8,1.79-8.62,4.5-13,4.18-5.24-.37-9.24-4.15-9.06-9.51,0-.17,0-.34,0-.51-2.38,2.57-4.67,5.2-7.05,7.43-5.34,5-12.21,10.61-20,9.64-9.91-1.23-12.72-10.28-13.19-19.71-1.21,2.8-2.35,5.64-3.64,8.36-3.29,6.95-7.58,13.08-14.27,17.14-5.74,3.48-12.84,4.25-18.59.35a20.54,20.54,0,0,1-6.72-8,23,23,0,0,1-4.7,6.46,7.59,7.59,0,0,1-5.94,2.18c-6.19,19-30.17,27.26-47.58,19V631c18.79,1.93,161.47-64.53,201.1-78.29A17.41,17.41,0,0,1,192.29,546.63Z" class="cls-5"/><path d="M0,773.81s1.5-71.27,203-139.67c154.63-51.75,232.12-47.45,131.63-54.94s116.91-93.32,366.64-94.86c182.06-1.13,529.21,72.52,464.63,124C1110.55,652.55,903.3,654.89,868,667.19c-11.58,4,24.26,7.87,51.87,8.66,115.95,3.31,406.15,39,520.09,110.9V764.17c-12.32-42.61-51.73-142.4-102.79-178.37C1212,497.57,700.8,479.34,700.8,479.34s-381.43,0-609.16,139.1L0,675.48Z" class="cls-14"/><path d="M77.3,859.06C9.88,879.64,24.7,710.69,241.23,641.72,324.57,615.18,493,579.15,423.49,574c-48.27-3.6,76.18-71.82,275.87-65.16,90.13,5.26,339.34,53.07,298.95,85.39-44.66,35.72-367.72,50.4-239.93,90.56,529.45,121.64,348.38,224.75,131.5,163.45C504.1,739.16,265.81,801.52,77.3,859.06Z" class="cls-13"/><path d="M1440,615.69V360s-150.37,1.54-176.7,82.1c-59.54-14.53-134.14,30.81-191.25,75.87C1083.55,518.13,1430.92,611.77,1440,615.69Z" class="cls-14"/><path fill="#1f877d" d="M1109.2,524.91c28.5,4.52,321.47,86.78,330.45,90.63l.35-64.4c-171.33,0-153.25-136.3-152.62-144.69a85.41,85.41,0,0,0-19.71,25.06c-1.35,2.8-4.37,10.54-4.37,10.54-5.44,10-23,33.17-76.38,24.18-37.47-2.43,71.59,26.2,32.68,34.5-23.6,9.08-47.14,13-70.81,8.17-26.82-7.4-50.39-10.57-76.71,9C1083.57,518.13,1107.71,524.68,1109.2,524.91Z" opacity=".6"/><path d="M1440,582.25a238.45,238.45,0,0,0-31.93-116.72c-4.57-7.89-26-40-53.37-24.94-11.11,6.09-20.54,15.94-22.9,28.39-1-6.68-9.55-10-15.92-7.8s-16.53,21-17.46,24.53c-10.35-17.52-29.42-10.21-33.3-3.56.88-5.7,2.84-24.5-14.51-17.64-5.36,2.12-20.41,21.87-20.13,28.37-4.26-4.21-9.29-8.16-15.28-8.39-25.38-1-.29,52,1.44,56.31,3.76,9.26,215.09,84.34,218.92,74S1440.09,593.27,1440,582.25Z" class="cls-6"/><path d="M1439.31,598.18c-.38-40.79-9.68-82.55-31.94-116.73-23.57-36.18-41.68-29.82-53.37-24.94a39.22,39.22,0,0,0-22.9,28.39c-1-6.67-9.55-10-15.91-7.8s-10.65,8.22-13.62,14.28a54.51,54.51,0,0,0-3.85,10.26c-10.35-17.52-29.42-10.21-33.3-3.56.88-5.7,2.55-24.32-14.51-17.64-5.37,2.1-20.41,21.86-20.13,28.37-4.26-4.22-9.29-8.16-15.28-8.39-25.38-1-.29,52.05,1.44,56.31a56.35,56.35,0,0,0,18.34,23.3c11.42,8.64,25.38,13.39,39.46,16a51,51,0,0,0,17.93.42,53,53,0,0,0,3.38,6.27c14.16,22.55,38.55,36.41,62.83,45.65a155.68,155.68,0,0,0,27.75,8.08c9.31,1.66,19.21,2,27.92-1.65,10.15-4.29,17.48-13.72,21.32-24S1439.41,609.19,1439.31,598.18Z" class="cls-4"/><path d="M1439.31,598.18a237.2,237.2,0,0,0-2.78-33.88,37.68,37.68,0,0,1-14.74-.27c-19.19-5-24.16-22-32.69-36.95-7.14-11.94-12.08,24.16-21.32,18.48-7.81-5-.71-16.35-4.26-24.88-6-11.47-10,24.88-19.19,34.83-4.26,3.55-12.08,3.55-14.21-.71-5-12.09-.71-26.3,7.82-38.38,10.38-14.24-10.45-3.21-19.9,12.79-4.22,7.14-1.42-11.37-4.27-17.05-6.27-10.67-4.24,22.88-7,33.35-.64-5.83-1.51-16.86-6.54-20.56-7.46-5.5-16.21,20.94-17.52,14.72-2.14-10.74-6-1.85-6-.76-.64,6.43-5.86-7.86-8.41-10.41-5-5.68-9.24,10.66-14.92,7.11-4.27-2.84,1.42-12.79-3.56-14.22-9.94-2.84-8.52,12.8-14.92,17.77-7.11,5.69-12.79-3.55-18.48-8.53-1.42-.71-3.55,0-3.55.71-.41,7.46,2.87,24.86,3.08,25.39C1219.7,566,1439.41,609.19,1439.31,598.18Z" class="cls-5"/><path fill="#26a397" d="M1440,594V764.17c-113.94-71.93-400.67-89.27-516.62-92.57-193.63-5.54,178-17.31,242.54-68.83s-289.7-121.61-465-121.61c-286.68,7.11-436,87.23-366.23,92.44,100.48,7.48,23,3.18-131.63,54.93-35.33,12-64.54,23.61-88.69,34.61C.74,714.92,0,753.17,0,753.17V596.67C401.12,482.18,558.48,481.42,700.8,479.34,1104.09,479.34,1440,594,1440,594Z"/></g></g></g></svg>